<svg fill="#000000" xmlns="http://www.w3.org/2000/svg" viewBox="0 0 50 50" width="50px" height="50px"><path d="M32 35.1L36 35.1 34 29.4zM12 25L7 31 10 31 10 35 14 35 14 31 17 31z"/><path d="M25 38L19 33 19 36 10 36 14 40 19 40 19 43zM26 3H6C4.3 3 3 4.3 3 6v20c0 1.7 1.3 3 3 3h.063l4.4-5.28.312-.375c-.303.116-.504.185-.559.204l-.633-1.897c.054-.018 2.82-.969 5.488-2.854-2.56-2.325-3.867-4.667-3.949-4.818l1.755-.959c.019.034 1.305 2.321 3.792 4.507 1.611-1.455 2.94-3.298 3.254-5.527H8v-2h8V8h2v2h7v2h-3.059c-.298 2.791-1.813 5.041-3.665 6.787.75.521 1.577 1 2.479 1.411C21.624 19.458 22.744 19 24 19h5V6C29 4.3 27.7 3 26 3z"/><path d="M12.577 22.568l.959 1.151 4.4 5.28H18.4 19v-5c0-.787.188-1.516.499-2.172-1.037-.505-1.971-1.092-2.813-1.71C15.246 21.194 13.763 22.004 12.577 22.568zM44 21H24c-1.7 0-3 1.3-3 3v5.7 2.363l5.28 4.4L28.124 38l-1.844 1.536-5.28 4.4V44c0 1.7 1.3 3 3 3h20c1.7 0 3-1.3 3-3V24C47 22.3 45.7 21 44 21zM37.8 40.2L36.7 37h-5.3L30.3 40.2h-2.5L33 26.4h2.1l5.2 13.8H37.8z"/></svg>